# xmcd
#
# Track frame offsets:
#	150
#	15188
#	30160
#	42661
#	54730
#	65079
#	76113
#	89538
#	102662
#	112929
#	127158
#	137506
#	154384
#
# Disc length: 2273 seconds
# Revision: 0
# Processed by: cddbd v1.5.2PL0 Copyright (c) Steve Scherf et al.
# Submitted via: dBpowerAMP V12.0
#
DISCID=aa08df0d
DTITLE=Rod Moag - Ah-Haa! Goes Grass: A bluegrass tribute
DYEAR=1900
DGENRE=Bluegrass
TTITLE0=San Antonio Rose
TTITLE1=Faded Love
TTITLE2=Will You Miss Me When I'm Gone
TTITLE3=My Brown-Eyed Texas Rose
TTITLE4=Hang Your Head in Shame
TTITLE5=So Long, I'll See You Later
TTITLE6=Tater Pie
TTITLE7=The Convict and the Rose
TTITLE8=Roly Poly
TTITLE9=I Had a Little Mule
TTITLE10=Corrine Corrina
TTITLE11=No Disappointment in Heaven
TTITLE12=Don't Let the Deal Go Down
EXTD=
EXTT0=
EXTT1=
EXTT2=
EXTT3=
EXTT4=
EXTT5=
EXTT6=
EXTT7=
EXTT8=
EXTT9=
EXTT10=
EXTT11=
EXTT12=
PLAYORDER=
